<svg xmlns="http://www.w3.org/2000/svg" width="13" height="13" viewBox="0 0 13 13">
    <path fill="#008CFD" fill-rule="evenodd" d="M11.137.127A.578.578 0 0 0 10.773 0c-.133.002-.264.055-.403.187l-5.698 7.55c-.597-.548-2.199-2.015-2.28-2.092-.078-.079-.224-.224-.45-.224-.242.005-.369.146-.467.255l-.075.081L.181 7.079l-.077.087a.557.557 0 0 0-.104.33.548.548 0 0 0 .118.323l.12.114c1.473 1.347 4.278 3.913 4.357 3.988.081.078.232.221.461.221.231-.004.376-.164.454-.25l7.378-9.764A.573.573 0 0 0 13 1.786a.576.576 0 0 0-.136-.355L11.137.127z"/>
</svg>
