<svg xmlns="http://www.w3.org/2000/svg" width="29" height="47" viewBox="0 0 29 47">
    <path fill="#008CFD" fill-rule="evenodd" d="M25.007 0c1.983 0 3.594 1.923 3.594 4.286v37.848c0 2.363-1.611 4.286-3.594 4.286H3.594C1.613 46.42 0 44.497 0 42.134V4.286C0 1.923 1.613 0 3.594 0h21.413zm1.199 39.277V4.286c0-.787-.537-1.429-1.199-1.429H3.594c-.661 0-1.198.642-1.198 1.429v34.991c0 .787.537 1.429 1.198 1.429h21.413c.662 0 1.199-.642 1.199-1.429zM15.49 44.69c.765 0 1.389-.54 1.389-1.199 0-.66-.624-1.2-1.389-1.2H13.11c-.763 0-1.387.54-1.387 1.2 0 .659.624 1.199 1.387 1.199h2.381zM14.3 19.63c2.29 0 4.448.895 6.07 2.512a1.363 1.363 0 0 1 0 1.928 1.347 1.347 0 0 1-1.928 0A5.837 5.837 0 0 0 14.3 22.36a5.807 5.807 0 0 0-4.138 1.711 1.366 1.366 0 0 1-1.93.005 1.37 1.37 0 0 1-.001-1.933A8.535 8.535 0 0 1 14.3 19.63zm0-5.414a12.57 12.57 0 0 1 8.952 3.706 1.366 1.366 0 0 1 0 1.928 1.362 1.362 0 0 1-1.93 0 9.86 9.86 0 0 0-7.021-2.907 9.856 9.856 0 0 0-7.02 2.907 1.363 1.363 0 0 1-1.929 0 1.36 1.36 0 0 1 0-1.928 12.56 12.56 0 0 1 8.949-3.706zm0 11.04a2.206 2.206 0 1 1 0 4.414 2.206 2.206 0 0 1 0-4.414z"/>
</svg>
