<svg xmlns="http://www.w3.org/2000/svg" width="17" height="23" viewBox="0 0 17 23">
    <path fill="#FFF" fill-rule="evenodd" d="M15.832 18.898c-1.199-2.25-2.7-2.911-4.507-1.983l-.42.216-.255.13c-1.176.605-2.72-.89-4.635-4.486C4.163 9.298 3.825 7.258 5 6.654l.148-.077.022-.01.084-.044.44-.226c1.696-.872 1.936-2.45.718-4.737C5.976.74 5.538.243 5.101.074 4.663-.096 3.755.036 3.354.38 2.954.725.7 2.61 0 3.742c.216 1.739.611 3.48 1.185 5.225a33.399 33.399 0 0 0 2.27 5.26 33.165 33.165 0 0 0 3.07 4.768 28.716 28.716 0 0 0 3.7 3.946 12.464 12.464 0 0 0 4.189-.549c.001.011.515-.232.515-.232.812-.417 1.28-.85 1.403-1.301.123-.45-.044-1.104-.5-1.96"/>
</svg>
