<?xml version="1.0" encoding="UTF-8"?>
<svg width="19px" height="27px" viewBox="0 0 19 27" version="1.1" xmlns="http://www.w3.org/2000/svg" xmlns:xlink="http://www.w3.org/1999/xlink">
    <!-- Generator: Sketch 43.1 (39012) - http://www.bohemiancoding.com/sketch -->
    <title>Page 1@3x</title>
    <desc>Created with Sketch.</desc>
    <defs>
        <polygon id="path-1" points="18.9335 26.940171 18.9335 6.5563825e-05 1.28749008e-20 6.55638251e-05 0 26.940171"></polygon>
    </defs>
    <g id="Page-1" stroke="none" stroke-width="1" fill="none" fill-rule="evenodd">
        <g id="Sign-Up-Forms" transform="translate(-2082.000000, -1980.000000)">
            <g id="Group-9" transform="translate(1923.000000, 1887.000000)">
                <g id="Page-1" transform="translate(159.000000, 93.000000)">
                    <mask id="mask-2" fill="white">
                        <use xlink:href="#path-1"></use>
                    </mask>
                    <g id="Clip-2"></g>
                    <path d="M18.309635,22.1848579 C16.923585,19.5431211 15.18651,18.7672263 13.097935,19.8567 L12.611535,20.1105947 L12.317035,20.2640684 C10.95711,20.9731737 9.170635,19.2177 6.956185,14.9967 C4.814885,10.9154368 4.42396,8.52001579 5.78341,7.81091053 L5.954885,7.72138421 L5.980535,7.70812105 L6.07791,7.65743684 L6.58521,7.39217368 C8.547435,6.36854211 8.824835,4.51501579 7.416935,1.83159474 C6.91106,0.867173684 6.405185,0.285489474 5.89931,0.0865421053 C5.39296,-0.112405263 4.34226,0.0420157895 3.87866,0.446068421 C3.415535,0.850594737 0.810635,3.06412105 -0.000189999999,4.39233158 C0.24966,6.43391053 0.70661,8.47880526 1.37066,10.5270158 C2.034235,12.5752263 2.909185,14.6338579 3.99456,16.7024368 C5.058085,18.7283842 6.24226,20.5947 7.547085,22.2990158 C8.85191,24.0038053 10.27786,25.5475421 11.82446,26.9302263 C13.53256,26.9913316 15.145185,26.7701211 16.66946,26.2864895 C16.67136,26.2992789 17.26606,26.0136474 17.26606,26.0136474 C18.20466,25.5243316 18.745685,25.0151211 18.888185,24.4864895 C19.030685,23.9583316 18.83736,23.1909632 18.309635,22.1848579" id="Fill-1" fill="#008CFD" mask="url(#mask-2)"></path>
                </g>
            </g>
        </g>
    </g>
</svg>