<svg xmlns="http://www.w3.org/2000/svg" width="36" height="49" viewBox="0 0 36 49">
    <path fill="#008CFD" fill-rule="evenodd" d="M27.895 16.768a.921.921 0 0 1 .217.568.908.908 0 0 1-.165.532l-.012.017-11.712 15.652c-.123.137-.352.393-.703.401h-.017c-.362 0-.602-.23-.731-.355-.125-.119-4.579-4.233-6.915-6.392l-.192-.184a.875.875 0 0 1-.186-.518.906.906 0 0 1 .164-.53l.123-.138c.558-.615 1.582-1.733 1.934-2.119l.12-.13c.155-.175.357-.4.724-.408h.017c.357 0 .59.233.716.36.128.123 2.668 2.474 3.618 3.352l9.043-12.103c.22-.21.428-.295.64-.3.208 0 .404.068.576.204l2.741 2.091zm4.462 12.979l-.008.151a11.888 11.888 0 0 1-.738 3.486l-.082.218-.406.824c-2.868 5.81-9.816 9.31-12.824 10.6-3.05-1.168-10.119-4.388-13.217-10.072l-.412-.755-.126-.288a11.841 11.841 0 0 1-.872-3.426l-.015-.168a12.484 12.484 0 0 1-.047-.815L3.218 9.438c6.6-.844 11.838-3.896 14.277-5.558 2.5 1.566 7.852 4.411 14.484 4.996l.392 20.064c.006.28-.002.557-.014.807zm2.722-23.914l-.986-.013C25.775 5.717 19.26 1.327 18.04.447L17.42 0l-.603.47C15.631 1.399 9.294 6.04.986 6.469L0 6.518l.45 23.046c.008.353.03.698.059 1.028l.016.175c.146 1.503.52 2.972 1.105 4.369l.617 1.395.061-.064C6.226 43.654 15.212 47.3 18.005 48.283l.36.128.355-.14c2.755-1.095 11.61-5.099 15.235-12.447l.086.078.53-1.41c.53-1.416.844-2.898.933-4.409l.008-.166c.015-.342.025-.688.019-1.04l-.452-23.044z"/>
</svg>
